<mxfile host="app.diagrams.net" modified="2023-08-11T07:29:22.755Z" agent="Mozilla/5.0 (Windows NT 10.0; Win64; x64) AppleWebKit/537.36 (KHTML, like Gecko) Chrome/115.0.0.0 Safari/537.36" etag="Ua3opVBgqzkfKzGJzAJL" version="21.6.8" type="github">
  <diagram name="Profile Microservice" id="kIIdPjnJi_nFVVMe3VOr">
    <mxGraphModel dx="1908" dy="1276" grid="1" gridSize="10" guides="1" tooltips="1" connect="1" arrows="1" fold="1" page="1" pageScale="1" pageWidth="827" pageHeight="1169" math="0" shadow="0">
      <root>
        <mxCell id="0" />
        <mxCell id="1" parent="0" />
        <mxCell id="sCX7qENGcsBtxhSft7dQ-1" value="&lt;div style=&quot;&quot;&gt;&lt;span style=&quot;font-size: 8px; background-color: initial;&quot;&gt;User&lt;/span&gt;&lt;/div&gt;" style="rounded=1;whiteSpace=wrap;html=1;align=center;" parent="1" vertex="1">
          <mxGeometry x="20" y="721" width="50" height="20" as="geometry" />
        </mxCell>
        <mxCell id="sCX7qENGcsBtxhSft7dQ-2" value="" style="endArrow=classic;html=1;rounded=0;strokeWidth=1;" parent="1" edge="1">
          <mxGeometry width="50" height="50" relative="1" as="geometry">
            <mxPoint x="70" y="731" as="sourcePoint" />
            <mxPoint x="120" y="731" as="targetPoint" />
            <Array as="points">
              <mxPoint x="90" y="730.78" />
            </Array>
          </mxGeometry>
        </mxCell>
        <mxCell id="sCX7qENGcsBtxhSft7dQ-4" value="&lt;font style=&quot;font-size: 5px;&quot;&gt;&lt;b&gt;User clicks&lt;/b&gt;&lt;/font&gt;" style="text;html=1;strokeColor=none;fillColor=none;align=center;verticalAlign=middle;whiteSpace=wrap;rounded=0;" parent="1" vertex="1">
          <mxGeometry x="71" y="718" width="40" height="10" as="geometry" />
        </mxCell>
        <mxCell id="sCX7qENGcsBtxhSft7dQ-7" value="&lt;div style=&quot;&quot;&gt;&lt;span style=&quot;font-size: 8px;&quot;&gt;Profile&lt;/span&gt;&lt;/div&gt;" style="rounded=1;whiteSpace=wrap;html=1;align=center;" parent="1" vertex="1">
          <mxGeometry x="120" y="721" width="50" height="20" as="geometry" />
        </mxCell>
        <mxCell id="sCX7qENGcsBtxhSft7dQ-8" value="" style="endArrow=classic;html=1;rounded=0;strokeWidth=1;" parent="1" edge="1">
          <mxGeometry width="50" height="50" relative="1" as="geometry">
            <mxPoint x="170" y="731" as="sourcePoint" />
            <mxPoint x="220" y="731" as="targetPoint" />
            <Array as="points">
              <mxPoint x="190" y="730.78" />
            </Array>
          </mxGeometry>
        </mxCell>
        <mxCell id="sCX7qENGcsBtxhSft7dQ-9" value="&lt;span style=&quot;font-size: 5px;&quot;&gt;&lt;b&gt;Control Pass To&lt;/b&gt;&lt;/span&gt;" style="text;html=1;strokeColor=none;fillColor=none;align=center;verticalAlign=middle;whiteSpace=wrap;rounded=0;" parent="1" vertex="1">
          <mxGeometry x="171" y="718" width="40" height="10" as="geometry" />
        </mxCell>
        <mxCell id="sCX7qENGcsBtxhSft7dQ-11" value="&lt;font style=&quot;font-size: 8px;&quot;&gt;Profile Microservice&lt;/font&gt;" style="shape=cube;whiteSpace=wrap;html=1;boundedLbl=1;backgroundOutline=1;darkOpacity=0.05;darkOpacity2=0.1;" parent="1" vertex="1">
          <mxGeometry x="219" y="698" width="81" height="63" as="geometry" />
        </mxCell>
        <mxCell id="sCX7qENGcsBtxhSft7dQ-14" value="" style="endArrow=classic;html=1;rounded=0;strokeWidth=1;entryX=0;entryY=0.5;entryDx=0;entryDy=0;" parent="1" target="sCX7qENGcsBtxhSft7dQ-18" edge="1">
          <mxGeometry width="50" height="50" relative="1" as="geometry">
            <mxPoint x="300" y="731.5699999999999" as="sourcePoint" />
            <mxPoint x="330" y="732" as="targetPoint" />
            <Array as="points">
              <mxPoint x="320" y="731.3499999999999" />
            </Array>
          </mxGeometry>
        </mxCell>
        <mxCell id="sCX7qENGcsBtxhSft7dQ-15" value="" style="endArrow=none;html=1;rounded=0;" parent="1" edge="1">
          <mxGeometry width="50" height="50" relative="1" as="geometry">
            <mxPoint x="466" y="1009" as="sourcePoint" />
            <mxPoint x="466" y="589" as="targetPoint" />
          </mxGeometry>
        </mxCell>
        <mxCell id="sCX7qENGcsBtxhSft7dQ-18" value="&lt;div style=&quot;&quot;&gt;&lt;font style=&quot;font-size: 7px;&quot;&gt;Profile section&lt;/font&gt;&lt;/div&gt;" style="rounded=1;whiteSpace=wrap;html=1;align=center;" parent="1" vertex="1">
          <mxGeometry x="358" y="721" width="50" height="20" as="geometry" />
        </mxCell>
        <mxCell id="sCX7qENGcsBtxhSft7dQ-20" value="&lt;span style=&quot;font-size: 5px;&quot;&gt;&lt;b&gt;Opens Up&amp;nbsp;&lt;/b&gt;&lt;/span&gt;" style="text;html=1;strokeColor=none;fillColor=none;align=center;verticalAlign=middle;whiteSpace=wrap;rounded=0;" parent="1" vertex="1">
          <mxGeometry x="310" y="713" width="40" height="20" as="geometry" />
        </mxCell>
        <mxCell id="sCX7qENGcsBtxhSft7dQ-21" value="" style="endArrow=classic;html=1;rounded=0;strokeWidth=1;entryX=0;entryY=0.5;entryDx=0;entryDy=0;" parent="1" edge="1">
          <mxGeometry width="50" height="50" relative="1" as="geometry">
            <mxPoint x="408" y="731.29" as="sourcePoint" />
            <mxPoint x="466" y="730.72" as="targetPoint" />
            <Array as="points">
              <mxPoint x="428" y="731.0699999999999" />
            </Array>
          </mxGeometry>
        </mxCell>
        <mxCell id="sCX7qENGcsBtxhSft7dQ-24" value="" style="endArrow=classic;html=1;rounded=0;" parent="1" edge="1">
          <mxGeometry width="50" height="50" relative="1" as="geometry">
            <mxPoint x="466" y="590" as="sourcePoint" />
            <mxPoint x="550" y="590" as="targetPoint" />
          </mxGeometry>
        </mxCell>
        <mxCell id="sCX7qENGcsBtxhSft7dQ-25" value="" style="endArrow=classic;html=1;rounded=0;" parent="1" edge="1">
          <mxGeometry width="50" height="50" relative="1" as="geometry">
            <mxPoint x="466" y="731" as="sourcePoint" />
            <mxPoint x="550" y="730" as="targetPoint" />
          </mxGeometry>
        </mxCell>
        <mxCell id="sCX7qENGcsBtxhSft7dQ-29" value="&lt;div style=&quot;text-align: left; font-size: 10px;&quot;&gt;&lt;div style=&quot;border-color: var(--border-color);&quot;&gt;&lt;font color=&quot;#ffffff&quot;&gt;1. Change password&lt;/font&gt;&lt;/div&gt;&lt;font style=&quot;border-color: var(--border-color); text-align: center; font-size: 10px;&quot; color=&quot;#ffffff&quot;&gt;&lt;div style=&quot;border-color: var(--border-color); text-align: left;&quot;&gt;&lt;span style=&quot;border-color: var(--border-color); background-color: initial;&quot;&gt;2.System settings:&amp;nbsp; Time zone, Work shift&lt;/span&gt;&lt;/div&gt;&lt;div style=&quot;border-color: var(--border-color); text-align: left;&quot;&gt;&lt;span style=&quot;border-color: var(--border-color); background-color: initial;&quot;&gt;3. T &amp;amp; E support(FAQs)&lt;/span&gt;&lt;/div&gt;&lt;div style=&quot;border-color: var(--border-color); text-align: left;&quot;&gt;&lt;br&gt;&lt;/div&gt;&lt;/font&gt;&lt;/div&gt;" style="rounded=1;whiteSpace=wrap;html=1;fillColor=#FF3D1F;strokeColor=#FFFFFF;" parent="1" vertex="1">
          <mxGeometry x="680" y="970.5" width="120" height="88" as="geometry" />
        </mxCell>
        <mxCell id="sCX7qENGcsBtxhSft7dQ-30" value="&lt;font style=&quot;font-size: 10px;&quot; color=&quot;#ffffff&quot;&gt;Name, Address, Phone No, Email Id&lt;/font&gt;" style="rounded=1;whiteSpace=wrap;html=1;fillColor=#FF3D1F;strokeColor=#FFFFFF;" parent="1" vertex="1">
          <mxGeometry x="680" y="571.5" width="120" height="40" as="geometry" />
        </mxCell>
        <mxCell id="sCX7qENGcsBtxhSft7dQ-33" value="&lt;font color=&quot;#ffffff&quot;&gt;Your Info&lt;/font&gt;" style="rounded=1;whiteSpace=wrap;html=1;fillColor=#FF3D1F;strokeColor=#FFFFFF;" parent="1" vertex="1">
          <mxGeometry x="550" y="578" width="70" height="27" as="geometry" />
        </mxCell>
        <mxCell id="sCX7qENGcsBtxhSft7dQ-37" value="&lt;font color=&quot;#ffffff&quot;&gt;Travel settings&lt;/font&gt;" style="rounded=1;whiteSpace=wrap;html=1;fillColor=#FF3D1F;strokeColor=#FFFFFF;" parent="1" vertex="1">
          <mxGeometry x="550" y="716" width="70" height="44" as="geometry" />
        </mxCell>
        <mxCell id="sCX7qENGcsBtxhSft7dQ-38" value="&lt;font color=&quot;#ffffff&quot;&gt;Other&amp;nbsp; Settings&lt;/font&gt;" style="rounded=1;whiteSpace=wrap;html=1;fillColor=#FF3D1F;strokeColor=#FFFFFF;" parent="1" vertex="1">
          <mxGeometry x="550" y="990" width="70" height="33" as="geometry" />
        </mxCell>
        <mxCell id="sCX7qENGcsBtxhSft7dQ-42" value="&lt;font style=&quot;font-size: 10px;&quot;&gt;&amp;nbsp;Employee &amp;amp; Manger flag&amp;nbsp; Y&lt;/font&gt;" style="rhombus;whiteSpace=wrap;html=1;fillColor=#FFFFFF;" parent="1" vertex="1">
          <mxGeometry x="333" y="409" width="95" height="90" as="geometry" />
        </mxCell>
        <mxCell id="sCX7qENGcsBtxhSft7dQ-48" value="" style="endArrow=classic;html=1;rounded=0;entryX=0;entryY=0.5;entryDx=0;entryDy=0;" parent="1" target="sCX7qENGcsBtxhSft7dQ-50" edge="1">
          <mxGeometry width="50" height="50" relative="1" as="geometry">
            <mxPoint x="428" y="454" as="sourcePoint" />
            <mxPoint x="522" y="454" as="targetPoint" />
          </mxGeometry>
        </mxCell>
        <mxCell id="sCX7qENGcsBtxhSft7dQ-49" value="&lt;font color=&quot;#ffffff&quot; style=&quot;font-size: 9px;&quot;&gt;&amp;nbsp;Planning to&lt;br&gt;be out of office ?&lt;br&gt;&amp;nbsp;Setup a Backup&lt;br&gt;&amp;nbsp;Travel Approval&lt;br&gt;&amp;nbsp;Manager&lt;/font&gt;" style="rhombus;whiteSpace=wrap;html=1;fillColor=#FF3D1F;" parent="1" vertex="1">
          <mxGeometry x="680" y="394" width="153" height="120" as="geometry" />
        </mxCell>
        <mxCell id="sCX7qENGcsBtxhSft7dQ-50" value="&lt;blockquote style=&quot;margin: 0 0 0 40px; border: none; padding: 0px;&quot;&gt;&lt;/blockquote&gt;&lt;font color=&quot;#ffffff&quot; style=&quot;font-size: 7px; background-color: rgb(255, 61, 31);&quot;&gt;Travel vacation&lt;br&gt;Reassessment :&lt;/font&gt;" style="rounded=1;whiteSpace=wrap;html=1;fillColor=#FF3D1F;strokeColor=#FFFFFF;align=center;" parent="1" vertex="1">
          <mxGeometry x="551" y="440.5" width="70" height="27" as="geometry" />
        </mxCell>
        <mxCell id="sCX7qENGcsBtxhSft7dQ-53" value="&lt;font style=&quot;font-size: 5px;&quot;&gt;&lt;b&gt;No&lt;/b&gt;&lt;/font&gt;" style="text;html=1;strokeColor=none;fillColor=none;align=center;verticalAlign=middle;whiteSpace=wrap;rounded=0;" parent="1" vertex="1">
          <mxGeometry x="368" y="381" width="40" height="20" as="geometry" />
        </mxCell>
        <mxCell id="sCX7qENGcsBtxhSft7dQ-54" value="&lt;span style=&quot;font-size: 5px;&quot;&gt;&lt;b&gt;Yes&lt;/b&gt;&lt;/span&gt;" style="text;html=1;strokeColor=none;fillColor=none;align=center;verticalAlign=middle;whiteSpace=wrap;rounded=0;" parent="1" vertex="1">
          <mxGeometry x="452" y="434" width="40" height="20" as="geometry" />
        </mxCell>
        <mxCell id="sCX7qENGcsBtxhSft7dQ-57" value="&lt;div style=&quot;&quot;&gt;&lt;font style=&quot;font-size: 7px;&quot;&gt;Not available to employee&lt;/font&gt;&lt;/div&gt;" style="rounded=1;whiteSpace=wrap;html=1;align=center;" parent="1" vertex="1">
          <mxGeometry x="345.5" y="320" width="68.5" height="53" as="geometry" />
        </mxCell>
        <mxCell id="sCX7qENGcsBtxhSft7dQ-58" value="&lt;span style=&quot;font-size: 5px;&quot;&gt;&lt;b&gt;User Clicks&lt;/b&gt;&lt;/span&gt;" style="text;html=1;strokeColor=none;fillColor=none;align=center;verticalAlign=middle;whiteSpace=wrap;rounded=0;" parent="1" vertex="1">
          <mxGeometry x="490" y="712" width="40" height="20" as="geometry" />
        </mxCell>
        <mxCell id="sCX7qENGcsBtxhSft7dQ-59" value="&lt;span style=&quot;font-size: 5px;&quot;&gt;&lt;b&gt;User Clicks&lt;/b&gt;&lt;/span&gt;" style="text;html=1;strokeColor=none;fillColor=none;align=center;verticalAlign=middle;whiteSpace=wrap;rounded=0;" parent="1" vertex="1">
          <mxGeometry x="492" y="980" width="40" height="26" as="geometry" />
        </mxCell>
        <mxCell id="sCX7qENGcsBtxhSft7dQ-60" value="" style="endArrow=classic;html=1;rounded=0;entryX=0;entryY=0.5;entryDx=0;entryDy=0;" parent="1" target="sCX7qENGcsBtxhSft7dQ-30" edge="1">
          <mxGeometry width="50" height="50" relative="1" as="geometry">
            <mxPoint x="620" y="591.5" as="sourcePoint" />
            <mxPoint x="670" y="541.5" as="targetPoint" />
          </mxGeometry>
        </mxCell>
        <mxCell id="sCX7qENGcsBtxhSft7dQ-61" value="&lt;span style=&quot;font-size: 5px;&quot;&gt;&lt;b&gt;User Enters&lt;/b&gt;&lt;/span&gt;" style="text;html=1;strokeColor=none;fillColor=none;align=center;verticalAlign=middle;whiteSpace=wrap;rounded=0;" parent="1" vertex="1">
          <mxGeometry x="625" y="573.5" width="40" height="20" as="geometry" />
        </mxCell>
        <mxCell id="sCX7qENGcsBtxhSft7dQ-66" value="" style="endArrow=classic;html=1;rounded=0;entryX=0;entryY=0.5;entryDx=0;entryDy=0;" parent="1" edge="1">
          <mxGeometry width="50" height="50" relative="1" as="geometry">
            <mxPoint x="620" y="1007.5" as="sourcePoint" />
            <mxPoint x="680" y="1008" as="targetPoint" />
          </mxGeometry>
        </mxCell>
        <mxCell id="sCX7qENGcsBtxhSft7dQ-70" value="Profile container" style="shape=cylinder3;whiteSpace=wrap;html=1;boundedLbl=1;backgroundOutline=1;size=15;" parent="1" vertex="1">
          <mxGeometry x="219" y="471" width="60" height="80" as="geometry" />
        </mxCell>
        <mxCell id="sCX7qENGcsBtxhSft7dQ-71" value="" style="endArrow=classic;html=1;rounded=0;entryX=0;entryY=0;entryDx=30.5;entryDy=0;entryPerimeter=0;exitX=0.5;exitY=1;exitDx=0;exitDy=0;exitPerimeter=0;" parent="1" edge="1">
          <mxGeometry width="50" height="50" relative="1" as="geometry">
            <mxPoint x="249" y="548" as="sourcePoint" />
            <mxPoint x="249.5" y="695" as="targetPoint" />
          </mxGeometry>
        </mxCell>
        <mxCell id="sCX7qENGcsBtxhSft7dQ-72" value="&lt;font style=&quot;font-size: 7px;&quot;&gt;Fetch Profile Details&lt;/font&gt;" style="text;html=1;strokeColor=none;fillColor=none;align=center;verticalAlign=middle;whiteSpace=wrap;rounded=0;" parent="1" vertex="1">
          <mxGeometry x="246" y="599.5" width="60" height="27.5" as="geometry" />
        </mxCell>
        <mxCell id="sCX7qENGcsBtxhSft7dQ-78" value="&lt;font color=&quot;#ffffff&quot;&gt;Travel contact &lt;br&gt;&amp;nbsp;number&lt;/font&gt;" style="rounded=1;whiteSpace=wrap;html=1;fillColor=#FF3D1F;strokeColor=#FFFFFF;" parent="1" vertex="1">
          <mxGeometry x="695" y="889" width="120" height="40" as="geometry" />
        </mxCell>
        <mxCell id="sCX7qENGcsBtxhSft7dQ-85" value="&lt;span style=&quot;font-size: 5px;&quot;&gt;&lt;b&gt;User Clicks&lt;/b&gt;&lt;/span&gt;" style="text;html=1;strokeColor=none;fillColor=none;align=center;verticalAlign=middle;whiteSpace=wrap;rounded=0;" parent="1" vertex="1">
          <mxGeometry x="490" y="571.5" width="40" height="20" as="geometry" />
        </mxCell>
        <mxCell id="sCX7qENGcsBtxhSft7dQ-87" value="&lt;span style=&quot;font-size: 5px;&quot;&gt;&lt;b&gt;User Clicks&lt;/b&gt;&lt;/span&gt;" style="text;html=1;strokeColor=none;fillColor=none;align=center;verticalAlign=middle;whiteSpace=wrap;rounded=0;" parent="1" vertex="1">
          <mxGeometry x="620" y="889" width="40" height="20" as="geometry" />
        </mxCell>
        <mxCell id="sCX7qENGcsBtxhSft7dQ-90" value="&lt;span style=&quot;font-size: 5px;&quot;&gt;&lt;b&gt;User enters&lt;/b&gt;&lt;/span&gt;" style="text;html=1;strokeColor=none;fillColor=none;align=center;verticalAlign=middle;whiteSpace=wrap;rounded=0;" parent="1" vertex="1">
          <mxGeometry x="625" y="983.5" width="40" height="26" as="geometry" />
        </mxCell>
        <mxCell id="sCX7qENGcsBtxhSft7dQ-94" value="&lt;font color=&quot;#ffffff&quot;&gt;Travel contact &lt;br&gt;&amp;nbsp;number&lt;/font&gt;" style="rounded=1;whiteSpace=wrap;html=1;fillColor=#FF3D1F;strokeColor=#FFFFFF;" parent="1" vertex="1">
          <mxGeometry x="870" y="889" width="215" height="40" as="geometry" />
        </mxCell>
        <mxCell id="sCX7qENGcsBtxhSft7dQ-95" value="" style="endArrow=classic;html=1;rounded=0;entryX=-0.014;entryY=0.489;entryDx=0;entryDy=0;entryPerimeter=0;exitX=0.432;exitY=0.955;exitDx=0;exitDy=0;exitPerimeter=0;" parent="1" source="sCX7qENGcsBtxhSft7dQ-37" edge="1">
          <mxGeometry width="50" height="50" relative="1" as="geometry">
            <mxPoint x="603" y="908.56" as="sourcePoint" />
            <mxPoint x="694" y="908.56" as="targetPoint" />
            <Array as="points">
              <mxPoint x="580" y="909" />
            </Array>
          </mxGeometry>
        </mxCell>
        <mxCell id="sCX7qENGcsBtxhSft7dQ-97" value="" style="endArrow=classic;html=1;rounded=0;entryX=0;entryY=0.5;entryDx=0;entryDy=0;" parent="1" target="sCX7qENGcsBtxhSft7dQ-94" edge="1">
          <mxGeometry width="50" height="50" relative="1" as="geometry">
            <mxPoint x="815" y="909" as="sourcePoint" />
            <mxPoint x="865" y="859" as="targetPoint" />
          </mxGeometry>
        </mxCell>
        <mxCell id="sCX7qENGcsBtxhSft7dQ-100" value="&lt;span style=&quot;font-size: 5px;&quot;&gt;&lt;b&gt;User enters&lt;/b&gt;&lt;/span&gt;" style="text;html=1;strokeColor=none;fillColor=none;align=center;verticalAlign=middle;whiteSpace=wrap;rounded=0;" parent="1" vertex="1">
          <mxGeometry x="820" y="887" width="40" height="20" as="geometry" />
        </mxCell>
        <mxCell id="sCX7qENGcsBtxhSft7dQ-104" value="&lt;font color=&quot;#ffffff&quot;&gt;Next&lt;/font&gt;" style="rounded=1;whiteSpace=wrap;html=1;fillColor=#FF3D1F;strokeColor=#FFFFFF;" parent="1" vertex="1">
          <mxGeometry x="1145" y="891" width="120" height="40" as="geometry" />
        </mxCell>
        <mxCell id="sCX7qENGcsBtxhSft7dQ-105" value="&lt;font color=&quot;#ffffff&quot;&gt;&lt;span style=&quot;font-size: 10px;&quot;&gt;NEXT&lt;/span&gt;&lt;/font&gt;" style="rounded=1;whiteSpace=wrap;html=1;fillColor=#FF3D1F;strokeColor=#FFFFFF;" parent="1" vertex="1">
          <mxGeometry x="880" y="570.5" width="120" height="40" as="geometry" />
        </mxCell>
        <mxCell id="sCX7qENGcsBtxhSft7dQ-106" value="" style="endArrow=classic;html=1;rounded=0;exitX=1.013;exitY=0.516;exitDx=0;exitDy=0;exitPerimeter=0;" parent="1" edge="1">
          <mxGeometry width="50" height="50" relative="1" as="geometry">
            <mxPoint x="800" y="590.62" as="sourcePoint" />
            <mxPoint x="880" y="591" as="targetPoint" />
          </mxGeometry>
        </mxCell>
        <mxCell id="sCX7qENGcsBtxhSft7dQ-114" value="&lt;span style=&quot;font-size: 5px;&quot;&gt;&lt;b&gt;User enters&lt;/b&gt;&lt;/span&gt;" style="text;html=1;strokeColor=none;fillColor=none;align=center;verticalAlign=middle;whiteSpace=wrap;rounded=0;" parent="1" vertex="1">
          <mxGeometry x="1091" y="893.5" width="40" height="20" as="geometry" />
        </mxCell>
        <mxCell id="sCX7qENGcsBtxhSft7dQ-115" value="" style="endArrow=classic;html=1;rounded=0;entryX=0;entryY=0.5;entryDx=0;entryDy=0;exitX=0.994;exitY=0.558;exitDx=0;exitDy=0;exitPerimeter=0;" parent="1" source="sCX7qENGcsBtxhSft7dQ-94" edge="1">
          <mxGeometry width="50" height="50" relative="1" as="geometry">
            <mxPoint x="1091" y="910.9200000000001" as="sourcePoint" />
            <mxPoint x="1146" y="910.9200000000001" as="targetPoint" />
          </mxGeometry>
        </mxCell>
        <mxCell id="sCX7qENGcsBtxhSft7dQ-116" value="Profile Container" style="shape=cylinder3;whiteSpace=wrap;html=1;boundedLbl=1;backgroundOutline=1;size=15;" parent="1" vertex="1">
          <mxGeometry x="1500" y="240" width="60" height="80" as="geometry" />
        </mxCell>
        <mxCell id="sCX7qENGcsBtxhSft7dQ-118" value="&lt;font color=&quot;#ffffff&quot;&gt;&lt;span style=&quot;font-size: 10px;&quot;&gt;NEXT&lt;/span&gt;&lt;/font&gt;" style="rounded=1;whiteSpace=wrap;html=1;fillColor=#FF3D1F;strokeColor=#FFFFFF;" parent="1" vertex="1">
          <mxGeometry x="890" y="990.5" width="120" height="40" as="geometry" />
        </mxCell>
        <mxCell id="sCX7qENGcsBtxhSft7dQ-121" value="" style="endArrow=classic;html=1;rounded=0;entryX=-0.005;entryY=0.347;entryDx=0;entryDy=0;entryPerimeter=0;" parent="1" edge="1">
          <mxGeometry width="50" height="50" relative="1" as="geometry">
            <mxPoint x="800" y="1009" as="sourcePoint" />
            <mxPoint x="889.4000000000001" y="1009.3800000000001" as="targetPoint" />
          </mxGeometry>
        </mxCell>
        <mxCell id="sCX7qENGcsBtxhSft7dQ-125" value="" style="endArrow=classic;html=1;rounded=0;exitX=1;exitY=0.75;exitDx=0;exitDy=0;" parent="1" source="sCX7qENGcsBtxhSft7dQ-105" edge="1">
          <mxGeometry width="50" height="50" relative="1" as="geometry">
            <mxPoint x="1000" y="591.5" as="sourcePoint" />
            <mxPoint x="1500" y="280" as="targetPoint" />
            <Array as="points">
              <mxPoint x="1320" y="600" />
              <mxPoint x="1320" y="280" />
            </Array>
          </mxGeometry>
        </mxCell>
        <mxCell id="sCX7qENGcsBtxhSft7dQ-127" value="" style="endArrow=classic;html=1;rounded=0;" parent="1" edge="1">
          <mxGeometry width="50" height="50" relative="1" as="geometry">
            <mxPoint x="1264" y="910" as="sourcePoint" />
            <mxPoint x="1322" y="910" as="targetPoint" />
          </mxGeometry>
        </mxCell>
        <mxCell id="sCX7qENGcsBtxhSft7dQ-129" value="" style="endArrow=classic;html=1;rounded=0;entryX=0.641;entryY=0.99;entryDx=0;entryDy=0;entryPerimeter=0;" parent="1" target="sCX7qENGcsBtxhSft7dQ-116" edge="1">
          <mxGeometry width="50" height="50" relative="1" as="geometry">
            <mxPoint x="1009" y="1010.5" as="sourcePoint" />
            <mxPoint x="1400" y="1010" as="targetPoint" />
            <Array as="points">
              <mxPoint x="1540" y="1010" />
            </Array>
          </mxGeometry>
        </mxCell>
        <mxCell id="sCX7qENGcsBtxhSft7dQ-133" value="Send data to be saved in profile container&amp;nbsp;" style="text;html=1;strokeColor=none;fillColor=none;align=center;verticalAlign=middle;whiteSpace=wrap;rounded=0;" parent="1" vertex="1">
          <mxGeometry x="1400" y="310" width="60" height="30" as="geometry" />
        </mxCell>
        <mxCell id="sCX7qENGcsBtxhSft7dQ-136" value="" style="endArrow=classic;html=1;rounded=0;entryX=0;entryY=0.5;entryDx=0;entryDy=0;" parent="1" edge="1">
          <mxGeometry width="50" height="50" relative="1" as="geometry">
            <mxPoint x="621" y="455" as="sourcePoint" />
            <mxPoint x="681" y="455.5" as="targetPoint" />
          </mxGeometry>
        </mxCell>
        <mxCell id="sCX7qENGcsBtxhSft7dQ-137" value="&lt;span style=&quot;font-size: 5px;&quot;&gt;&lt;b&gt;User enters&lt;/b&gt;&lt;/span&gt;" style="text;html=1;strokeColor=none;fillColor=none;align=center;verticalAlign=middle;whiteSpace=wrap;rounded=0;" parent="1" vertex="1">
          <mxGeometry x="626" y="431" width="40" height="26" as="geometry" />
        </mxCell>
        <mxCell id="sCX7qENGcsBtxhSft7dQ-138" value="" style="endArrow=classic;html=1;rounded=0;entryX=0.5;entryY=1;entryDx=0;entryDy=0;" parent="1" target="sCX7qENGcsBtxhSft7dQ-57" edge="1">
          <mxGeometry width="50" height="50" relative="1" as="geometry">
            <mxPoint x="380" y="409" as="sourcePoint" />
            <mxPoint x="430" y="359" as="targetPoint" />
          </mxGeometry>
        </mxCell>
        <mxCell id="sCX7qENGcsBtxhSft7dQ-139" value="" style="endArrow=classic;html=1;rounded=0;" parent="1" edge="1">
          <mxGeometry width="50" height="50" relative="1" as="geometry">
            <mxPoint x="380" y="720" as="sourcePoint" />
            <mxPoint x="380" y="500" as="targetPoint" />
          </mxGeometry>
        </mxCell>
        <mxCell id="sCX7qENGcsBtxhSft7dQ-147" value="" style="endArrow=classic;html=1;rounded=0;" parent="1" edge="1">
          <mxGeometry width="50" height="50" relative="1" as="geometry">
            <mxPoint x="833" y="453.49" as="sourcePoint" />
            <mxPoint x="895" y="453.49" as="targetPoint" />
          </mxGeometry>
        </mxCell>
        <mxCell id="sCX7qENGcsBtxhSft7dQ-148" value="&lt;font color=&quot;#ffffff&quot;&gt;&lt;span style=&quot;font-size: 10px;&quot;&gt;NEXT&lt;/span&gt;&lt;/font&gt;" style="rounded=1;whiteSpace=wrap;html=1;fillColor=#FF3D1F;strokeColor=#FFFFFF;" parent="1" vertex="1">
          <mxGeometry x="1102" y="440.5" width="120" height="40" as="geometry" />
        </mxCell>
        <mxCell id="sCX7qENGcsBtxhSft7dQ-149" value="&lt;font color=&quot;#ffffff&quot; style=&quot;background-color: rgb(255, 61, 31);&quot;&gt;Search &amp;amp; Select Employee/Manager flag (Make him&amp;nbsp; Temporary approval manager tag Y)&lt;/font&gt;" style="rounded=1;whiteSpace=wrap;html=1;fillColor=#FF3D1F;" parent="1" vertex="1">
          <mxGeometry x="897" y="397.5" width="120" height="113" as="geometry" />
        </mxCell>
        <mxCell id="sCX7qENGcsBtxhSft7dQ-159" value="Yes" style="text;html=1;strokeColor=none;fillColor=none;align=center;verticalAlign=middle;whiteSpace=wrap;rounded=0;" parent="1" vertex="1">
          <mxGeometry x="827" y="420" width="60" height="30" as="geometry" />
        </mxCell>
        <mxCell id="sCX7qENGcsBtxhSft7dQ-165" value="" style="endArrow=classic;html=1;rounded=0;" parent="1" edge="1">
          <mxGeometry width="50" height="50" relative="1" as="geometry">
            <mxPoint x="1017" y="459" as="sourcePoint" />
            <mxPoint x="1100" y="459" as="targetPoint" />
          </mxGeometry>
        </mxCell>
        <mxCell id="sCX7qENGcsBtxhSft7dQ-167" value="Save" style="text;html=1;strokeColor=none;fillColor=none;align=center;verticalAlign=middle;whiteSpace=wrap;rounded=0;" parent="1" vertex="1">
          <mxGeometry x="1025" y="424" width="60" height="30" as="geometry" />
        </mxCell>
        <mxCell id="sCX7qENGcsBtxhSft7dQ-174" value="Temporary manager Field" style="text;html=1;strokeColor=none;fillColor=none;align=center;verticalAlign=middle;whiteSpace=wrap;rounded=0;" parent="1" vertex="1">
          <mxGeometry x="1085" y="225" width="60" height="30" as="geometry" />
        </mxCell>
        <mxCell id="sCX7qENGcsBtxhSft7dQ-175" value="Onboarding Microservice" style="shape=cube;whiteSpace=wrap;html=1;boundedLbl=1;backgroundOutline=1;darkOpacity=0.05;darkOpacity2=0.1;" parent="1" vertex="1">
          <mxGeometry x="1089" y="280" width="120" height="80" as="geometry" />
        </mxCell>
        <mxCell id="sCX7qENGcsBtxhSft7dQ-176" value="Async fire and forget" style="text;html=1;strokeColor=none;fillColor=none;align=center;verticalAlign=middle;whiteSpace=wrap;rounded=0;" parent="1" vertex="1">
          <mxGeometry x="1165" y="390" width="75" height="30" as="geometry" />
        </mxCell>
        <mxCell id="sCX7qENGcsBtxhSft7dQ-177" value="" style="endArrow=classic;html=1;rounded=0;exitX=0.555;exitY=-0.002;exitDx=0;exitDy=0;exitPerimeter=0;" parent="1" source="sCX7qENGcsBtxhSft7dQ-175" edge="1">
          <mxGeometry width="50" height="50" relative="1" as="geometry">
            <mxPoint x="1062" y="146" as="sourcePoint" />
            <mxPoint x="1156" y="200" as="targetPoint" />
          </mxGeometry>
        </mxCell>
        <mxCell id="sCX7qENGcsBtxhSft7dQ-179" value="" style="endArrow=classic;html=1;rounded=0;exitX=0.484;exitY=-0.007;exitDx=0;exitDy=0;exitPerimeter=0;" parent="1" source="sCX7qENGcsBtxhSft7dQ-148" edge="1">
          <mxGeometry width="50" height="50" relative="1" as="geometry">
            <mxPoint x="1162" y="440.5" as="sourcePoint" />
            <mxPoint x="1160" y="360" as="targetPoint" />
          </mxGeometry>
        </mxCell>
        <mxCell id="sCX7qENGcsBtxhSft7dQ-180" value="&lt;font style=&quot;font-size: 11px;&quot;&gt;HR &amp;amp; Company structure container&lt;/font&gt;" style="shape=cylinder3;whiteSpace=wrap;html=1;boundedLbl=1;backgroundOutline=1;size=15;" parent="1" vertex="1">
          <mxGeometry x="1113" y="100" width="72" height="96" as="geometry" />
        </mxCell>
        <mxCell id="P8ak96mhny76IhVilgOm-1" value="&lt;font style=&quot;font-size: 11px;&quot;&gt;HR &amp;amp; Company structure container&lt;/font&gt;" style="shape=cylinder3;whiteSpace=wrap;html=1;boundedLbl=1;backgroundOutline=1;size=15;" parent="1" vertex="1">
          <mxGeometry x="70" y="450" width="62" height="90" as="geometry" />
        </mxCell>
        <mxCell id="P8ak96mhny76IhVilgOm-2" value="Onboarding Microservice" style="shape=cube;whiteSpace=wrap;html=1;boundedLbl=1;backgroundOutline=1;darkOpacity=0.05;darkOpacity2=0.1;" parent="1" vertex="1">
          <mxGeometry x="50.5" y="599.5" width="101" height="67" as="geometry" />
        </mxCell>
        <mxCell id="P8ak96mhny76IhVilgOm-6" value="" style="endArrow=classic;html=1;rounded=0;exitX=1.006;exitY=0.593;exitDx=0;exitDy=0;exitPerimeter=0;entryX=0.24;entryY=-0.038;entryDx=0;entryDy=0;entryPerimeter=0;" parent="1" source="P8ak96mhny76IhVilgOm-2" target="sCX7qENGcsBtxhSft7dQ-11" edge="1">
          <mxGeometry width="50" height="50" relative="1" as="geometry">
            <mxPoint x="161" y="691.5" as="sourcePoint" />
            <mxPoint x="211" y="641.5" as="targetPoint" />
            <Array as="points">
              <mxPoint x="238" y="640" />
            </Array>
          </mxGeometry>
        </mxCell>
        <mxCell id="P8ak96mhny76IhVilgOm-7" value="" style="endArrow=classic;html=1;rounded=0;" parent="1" target="P8ak96mhny76IhVilgOm-2" edge="1">
          <mxGeometry width="50" height="50" relative="1" as="geometry">
            <mxPoint x="101.5" y="540" as="sourcePoint" />
            <mxPoint x="151.5" y="490" as="targetPoint" />
          </mxGeometry>
        </mxCell>
        <mxCell id="P8ak96mhny76IhVilgOm-8" value="&lt;font style=&quot;font-size: 7px;&quot;&gt;Fetch Employee &amp;amp; Manager flag Y&amp;nbsp; Details&lt;/font&gt;" style="text;html=1;strokeColor=none;fillColor=none;align=center;verticalAlign=middle;whiteSpace=wrap;rounded=0;" parent="1" vertex="1">
          <mxGeometry x="110" y="557" width="60" height="27.5" as="geometry" />
        </mxCell>
        <mxCell id="P8ak96mhny76IhVilgOm-10" value="" style="endArrow=classic;html=1;rounded=0;" parent="1" edge="1">
          <mxGeometry width="50" height="50" relative="1" as="geometry">
            <mxPoint x="466" y="1008" as="sourcePoint" />
            <mxPoint x="550" y="1007" as="targetPoint" />
          </mxGeometry>
        </mxCell>
        <mxCell id="P8ak96mhny76IhVilgOm-11" value="&lt;div style=&quot;&quot;&gt;&lt;font color=&quot;#ffffff&quot;&gt;&lt;span style=&quot;font-size: 12px;&quot;&gt;&lt;br&gt;&lt;/span&gt;&lt;/font&gt;&lt;/div&gt;&lt;font color=&quot;#ffffff&quot;&gt;&lt;div style=&quot;&quot;&gt;Seat preference, Traveller cabin,Food preference&amp;nbsp;&lt;/div&gt;&lt;/font&gt;" style="rounded=1;whiteSpace=wrap;html=1;fillColor=#FF3D1F;strokeColor=#FFFFFF;align=center;" parent="1" vertex="1">
          <mxGeometry x="1049" y="715.13" width="215" height="43.75" as="geometry" />
        </mxCell>
        <mxCell id="P8ak96mhny76IhVilgOm-12" value="&lt;font color=&quot;#ffffff&quot;&gt;Travel preferences&lt;/font&gt;" style="rounded=1;whiteSpace=wrap;html=1;fillColor=#FF3D1F;strokeColor=#FFFFFF;" parent="1" vertex="1">
          <mxGeometry x="686" y="717" width="120" height="40" as="geometry" />
        </mxCell>
        <mxCell id="P8ak96mhny76IhVilgOm-13" value="&lt;span style=&quot;font-size: 5px;&quot;&gt;&lt;b&gt;User enters&lt;/b&gt;&lt;/span&gt;" style="text;html=1;strokeColor=none;fillColor=none;align=center;verticalAlign=middle;whiteSpace=wrap;rounded=0;" parent="1" vertex="1">
          <mxGeometry x="1001" y="713.5" width="40" height="20" as="geometry" />
        </mxCell>
        <mxCell id="P8ak96mhny76IhVilgOm-14" value="" style="endArrow=classic;html=1;rounded=0;entryX=0;entryY=0.5;entryDx=0;entryDy=0;exitX=1;exitY=0.5;exitDx=0;exitDy=0;" parent="1" source="P8ak96mhny76IhVilgOm-12" edge="1">
          <mxGeometry width="50" height="50" relative="1" as="geometry">
            <mxPoint x="818" y="737" as="sourcePoint" />
            <mxPoint x="873" y="737" as="targetPoint" />
          </mxGeometry>
        </mxCell>
        <mxCell id="P8ak96mhny76IhVilgOm-15" value="&lt;font color=&quot;#ffffff&quot;&gt;Next&lt;/font&gt;" style="rounded=1;whiteSpace=wrap;html=1;fillColor=#FF3D1F;strokeColor=#FFFFFF;" parent="1" vertex="1">
          <mxGeometry x="1327" y="717" width="120" height="40" as="geometry" />
        </mxCell>
        <mxCell id="P8ak96mhny76IhVilgOm-17" value="" style="endArrow=classic;html=1;rounded=0;entryX=0;entryY=0.5;entryDx=0;entryDy=0;exitX=0.996;exitY=0.616;exitDx=0;exitDy=0;exitPerimeter=0;" parent="1" edge="1">
          <mxGeometry width="50" height="50" relative="1" as="geometry">
            <mxPoint x="990.5700000000004" y="736.5199999999998" as="sourcePoint" />
            <mxPoint x="1051.43" y="736.5699999999999" as="targetPoint" />
          </mxGeometry>
        </mxCell>
        <mxCell id="P8ak96mhny76IhVilgOm-18" value="" style="endArrow=classic;html=1;rounded=0;exitX=1;exitY=0.5;exitDx=0;exitDy=0;entryX=0;entryY=0.5;entryDx=0;entryDy=0;" parent="1" source="P8ak96mhny76IhVilgOm-11" target="P8ak96mhny76IhVilgOm-15" edge="1">
          <mxGeometry width="50" height="50" relative="1" as="geometry">
            <mxPoint x="1268" y="733.5" as="sourcePoint" />
            <mxPoint x="1326" y="733.5" as="targetPoint" />
          </mxGeometry>
        </mxCell>
        <mxCell id="P8ak96mhny76IhVilgOm-19" value="&lt;font color=&quot;#ffffff&quot;&gt;Car Type, Wifi, A/c or Non A/c&lt;/font&gt;" style="rounded=1;whiteSpace=wrap;html=1;fillColor=#FF3D1F;strokeColor=#FFFFFF;align=center;" parent="1" vertex="1">
          <mxGeometry x="1043" y="797" width="215" height="43.75" as="geometry" />
        </mxCell>
        <mxCell id="P8ak96mhny76IhVilgOm-21" value="&lt;span style=&quot;font-size: 5px;&quot;&gt;&lt;b&gt;User enters&lt;/b&gt;&lt;/span&gt;" style="text;html=1;strokeColor=none;fillColor=none;align=center;verticalAlign=middle;whiteSpace=wrap;rounded=0;" parent="1" vertex="1">
          <mxGeometry x="993" y="797" width="40" height="20" as="geometry" />
        </mxCell>
        <mxCell id="P8ak96mhny76IhVilgOm-22" value="" style="endArrow=classic;html=1;rounded=0;entryX=0;entryY=0.5;entryDx=0;entryDy=0;" parent="1" edge="1">
          <mxGeometry width="50" height="50" relative="1" as="geometry">
            <mxPoint x="989" y="819" as="sourcePoint" />
            <mxPoint x="1044" y="819" as="targetPoint" />
          </mxGeometry>
        </mxCell>
        <mxCell id="P8ak96mhny76IhVilgOm-23" value="&lt;font color=&quot;#ffffff&quot;&gt;Next&lt;/font&gt;" style="rounded=1;whiteSpace=wrap;html=1;fillColor=#FF3D1F;strokeColor=#FFFFFF;" parent="1" vertex="1">
          <mxGeometry x="1319" y="804" width="120" height="40" as="geometry" />
        </mxCell>
        <mxCell id="P8ak96mhny76IhVilgOm-25" value="" style="endArrow=classic;html=1;rounded=0;entryX=0;entryY=0.5;entryDx=0;entryDy=0;exitX=0.996;exitY=0.616;exitDx=0;exitDy=0;exitPerimeter=0;" parent="1" target="P8ak96mhny76IhVilgOm-23" edge="1">
          <mxGeometry width="50" height="50" relative="1" as="geometry">
            <mxPoint x="1258.1399999999999" y="823.9499999999998" as="sourcePoint" />
            <mxPoint x="1315" y="823.8" as="targetPoint" />
          </mxGeometry>
        </mxCell>
        <mxCell id="P8ak96mhny76IhVilgOm-26" value="" style="endArrow=classic;html=1;rounded=0;" parent="1" edge="1">
          <mxGeometry width="50" height="50" relative="1" as="geometry">
            <mxPoint x="1438" y="821" as="sourcePoint" />
            <mxPoint x="1540" y="821" as="targetPoint" />
          </mxGeometry>
        </mxCell>
        <mxCell id="P8ak96mhny76IhVilgOm-27" value="&lt;font color=&quot;#ffffff&quot;&gt;Flight&lt;/font&gt;" style="rounded=1;whiteSpace=wrap;html=1;fillColor=#FF3D1F;strokeColor=#FFFFFF;" parent="1" vertex="1">
          <mxGeometry x="870" y="717" width="120" height="40" as="geometry" />
        </mxCell>
        <mxCell id="P8ak96mhny76IhVilgOm-28" value="&lt;font color=&quot;#ffffff&quot;&gt;Cabs&lt;/font&gt;" style="rounded=1;whiteSpace=wrap;html=1;fillColor=#FF3D1F;strokeColor=#FFFFFF;" parent="1" vertex="1">
          <mxGeometry x="870" y="797" width="120" height="40" as="geometry" />
        </mxCell>
        <mxCell id="P8ak96mhny76IhVilgOm-29" value="&lt;font color=&quot;#ffffff&quot;&gt;Hotel&lt;/font&gt;" style="rounded=1;whiteSpace=wrap;html=1;fillColor=#FF3D1F;strokeColor=#FFFFFF;" parent="1" vertex="1">
          <mxGeometry x="870" y="645" width="120" height="40" as="geometry" />
        </mxCell>
        <mxCell id="P8ak96mhny76IhVilgOm-30" value="&lt;span style=&quot;font-size: 5px;&quot;&gt;&lt;b&gt;User Clicks&lt;/b&gt;&lt;/span&gt;" style="text;html=1;strokeColor=none;fillColor=none;align=center;verticalAlign=middle;whiteSpace=wrap;rounded=0;" parent="1" vertex="1">
          <mxGeometry x="816" y="713.5" width="40" height="20" as="geometry" />
        </mxCell>
        <mxCell id="P8ak96mhny76IhVilgOm-35" value="" style="endArrow=classic;html=1;rounded=0;exitX=0.5;exitY=0;exitDx=0;exitDy=0;" parent="1" source="P8ak96mhny76IhVilgOm-12" edge="1">
          <mxGeometry width="50" height="50" relative="1" as="geometry">
            <mxPoint x="776" y="658" as="sourcePoint" />
            <mxPoint x="870" y="658" as="targetPoint" />
            <Array as="points">
              <mxPoint x="746" y="658" />
            </Array>
          </mxGeometry>
        </mxCell>
        <mxCell id="P8ak96mhny76IhVilgOm-36" value="" style="endArrow=classic;html=1;rounded=0;exitX=0.5;exitY=1;exitDx=0;exitDy=0;" parent="1" source="P8ak96mhny76IhVilgOm-12" edge="1">
          <mxGeometry width="50" height="50" relative="1" as="geometry">
            <mxPoint x="820" y="867" as="sourcePoint" />
            <mxPoint x="870" y="817" as="targetPoint" />
            <Array as="points">
              <mxPoint x="746" y="817" />
            </Array>
          </mxGeometry>
        </mxCell>
        <mxCell id="P8ak96mhny76IhVilgOm-37" value="&lt;span style=&quot;font-size: 5px;&quot;&gt;&lt;b&gt;User Clicks&lt;/b&gt;&lt;/span&gt;" style="text;html=1;strokeColor=none;fillColor=none;align=center;verticalAlign=middle;whiteSpace=wrap;rounded=0;" parent="1" vertex="1">
          <mxGeometry x="802" y="638" width="40" height="20" as="geometry" />
        </mxCell>
        <mxCell id="P8ak96mhny76IhVilgOm-38" value="&lt;span style=&quot;font-size: 5px;&quot;&gt;&lt;b&gt;User Clicks&lt;/b&gt;&lt;/span&gt;" style="text;html=1;strokeColor=none;fillColor=none;align=center;verticalAlign=middle;whiteSpace=wrap;rounded=0;" parent="1" vertex="1">
          <mxGeometry x="810" y="790" width="40" height="20" as="geometry" />
        </mxCell>
        <mxCell id="P8ak96mhny76IhVilgOm-39" value="&lt;div style=&quot;&quot;&gt;&lt;font color=&quot;#ffffff&quot;&gt;Hotel rating,Food Preference, Location&amp;nbsp;&lt;/font&gt;&lt;/div&gt;" style="rounded=1;whiteSpace=wrap;html=1;fillColor=#FF3D1F;strokeColor=#FFFFFF;align=center;" parent="1" vertex="1">
          <mxGeometry x="1049" y="643.13" width="215" height="43.75" as="geometry" />
        </mxCell>
        <mxCell id="P8ak96mhny76IhVilgOm-40" value="" style="endArrow=classic;html=1;rounded=0;entryX=0;entryY=0.5;entryDx=0;entryDy=0;" parent="1" target="P8ak96mhny76IhVilgOm-43" edge="1">
          <mxGeometry width="50" height="50" relative="1" as="geometry">
            <mxPoint x="1264" y="665.01" as="sourcePoint" />
            <mxPoint x="1322" y="665.01" as="targetPoint" />
          </mxGeometry>
        </mxCell>
        <mxCell id="P8ak96mhny76IhVilgOm-43" value="&lt;font color=&quot;#ffffff&quot;&gt;Next&lt;/font&gt;" style="rounded=1;whiteSpace=wrap;html=1;fillColor=#FF3D1F;strokeColor=#FFFFFF;" parent="1" vertex="1">
          <mxGeometry x="1326" y="645" width="120" height="40" as="geometry" />
        </mxCell>
        <mxCell id="P8ak96mhny76IhVilgOm-44" value="" style="endArrow=classic;html=1;rounded=0;" parent="1" edge="1">
          <mxGeometry width="50" height="50" relative="1" as="geometry">
            <mxPoint x="991" y="664.63" as="sourcePoint" />
            <mxPoint x="1049" y="664.63" as="targetPoint" />
          </mxGeometry>
        </mxCell>
        <mxCell id="P8ak96mhny76IhVilgOm-45" value="&lt;span style=&quot;font-size: 5px;&quot;&gt;&lt;b&gt;User enters&lt;/b&gt;&lt;/span&gt;" style="text;html=1;strokeColor=none;fillColor=none;align=center;verticalAlign=middle;whiteSpace=wrap;rounded=0;" parent="1" vertex="1">
          <mxGeometry x="989" y="645.01" width="40" height="20" as="geometry" />
        </mxCell>
        <mxCell id="P8ak96mhny76IhVilgOm-46" value="Save" style="text;html=1;strokeColor=none;fillColor=none;align=center;verticalAlign=middle;whiteSpace=wrap;rounded=0;" parent="1" vertex="1">
          <mxGeometry x="813" y="561.5" width="60" height="30" as="geometry" />
        </mxCell>
        <mxCell id="P8ak96mhny76IhVilgOm-47" value="Save" style="text;html=1;strokeColor=none;fillColor=none;align=center;verticalAlign=middle;whiteSpace=wrap;rounded=0;" parent="1" vertex="1">
          <mxGeometry x="1267" y="638" width="60" height="30" as="geometry" />
        </mxCell>
        <mxCell id="P8ak96mhny76IhVilgOm-48" value="Save" style="text;html=1;strokeColor=none;fillColor=none;align=center;verticalAlign=middle;whiteSpace=wrap;rounded=0;" parent="1" vertex="1">
          <mxGeometry x="1264" y="713.5" width="60" height="30" as="geometry" />
        </mxCell>
        <mxCell id="P8ak96mhny76IhVilgOm-49" value="Save" style="text;html=1;strokeColor=none;fillColor=none;align=center;verticalAlign=middle;whiteSpace=wrap;rounded=0;" parent="1" vertex="1">
          <mxGeometry x="1256" y="797" width="60" height="30" as="geometry" />
        </mxCell>
        <mxCell id="P8ak96mhny76IhVilgOm-50" value="Save" style="text;html=1;strokeColor=none;fillColor=none;align=center;verticalAlign=middle;whiteSpace=wrap;rounded=0;" parent="1" vertex="1">
          <mxGeometry x="1263" y="884" width="60" height="30" as="geometry" />
        </mxCell>
        <mxCell id="P8ak96mhny76IhVilgOm-51" value="&lt;font color=&quot;#ffffff&quot;&gt;Next&lt;/font&gt;" style="rounded=1;whiteSpace=wrap;html=1;fillColor=#FF3D1F;strokeColor=#FFFFFF;" parent="1" vertex="1">
          <mxGeometry x="1323" y="891" width="120" height="40" as="geometry" />
        </mxCell>
        <mxCell id="P8ak96mhny76IhVilgOm-53" value="" style="endArrow=classic;html=1;rounded=0;entryX=0.018;entryY=0.513;entryDx=0;entryDy=0;entryPerimeter=0;" parent="1" target="P8ak96mhny76IhVilgOm-12" edge="1">
          <mxGeometry width="50" height="50" relative="1" as="geometry">
            <mxPoint x="619" y="737.37" as="sourcePoint" />
            <mxPoint x="690" y="737.7399999999999" as="targetPoint" />
          </mxGeometry>
        </mxCell>
        <mxCell id="P8ak96mhny76IhVilgOm-54" value="&lt;span style=&quot;font-size: 5px;&quot;&gt;&lt;b&gt;User Clicks&lt;/b&gt;&lt;/span&gt;" style="text;html=1;strokeColor=none;fillColor=none;align=center;verticalAlign=middle;whiteSpace=wrap;rounded=0;" parent="1" vertex="1">
          <mxGeometry x="626" y="716" width="40" height="20" as="geometry" />
        </mxCell>
        <mxCell id="P8ak96mhny76IhVilgOm-59" value="Save" style="text;html=1;strokeColor=none;fillColor=none;align=center;verticalAlign=middle;whiteSpace=wrap;rounded=0;" parent="1" vertex="1">
          <mxGeometry x="818" y="979.5" width="60" height="30" as="geometry" />
        </mxCell>
        <mxCell id="P8ak96mhny76IhVilgOm-60" value="" style="endArrow=classic;html=1;rounded=0;" parent="1" edge="1">
          <mxGeometry width="50" height="50" relative="1" as="geometry">
            <mxPoint x="1446" y="666.5" as="sourcePoint" />
            <mxPoint x="1540" y="667" as="targetPoint" />
          </mxGeometry>
        </mxCell>
        <mxCell id="P8ak96mhny76IhVilgOm-63" value="" style="endArrow=classic;html=1;rounded=0;exitX=0.986;exitY=0.58;exitDx=0;exitDy=0;exitPerimeter=0;" parent="1" source="P8ak96mhny76IhVilgOm-15" edge="1">
          <mxGeometry width="50" height="50" relative="1" as="geometry">
            <mxPoint x="1446" y="743.5" as="sourcePoint" />
            <mxPoint x="1540" y="740" as="targetPoint" />
          </mxGeometry>
        </mxCell>
        <mxCell id="P8ak96mhny76IhVilgOm-64" value="" style="endArrow=classic;html=1;rounded=0;exitX=1;exitY=0.5;exitDx=0;exitDy=0;" parent="1" source="P8ak96mhny76IhVilgOm-51" edge="1">
          <mxGeometry width="50" height="50" relative="1" as="geometry">
            <mxPoint x="1447" y="913.5" as="sourcePoint" />
            <mxPoint x="1541" y="910" as="targetPoint" />
          </mxGeometry>
        </mxCell>
        <mxCell id="8wwqLfJiLJ7VVBayofBk-1" value="&lt;font style=&quot;font-size: 30px;&quot;&gt;Profile Microservice&lt;/font&gt;" style="text;html=1;align=center;verticalAlign=middle;resizable=0;points=[];autosize=1;strokeColor=none;fillColor=none;" parent="1" vertex="1">
          <mxGeometry x="131" y="45" width="290" height="50" as="geometry" />
        </mxCell>
      </root>
    </mxGraphModel>
  </diagram>
</mxfile>
